<?xml version="1.0" encoding="UTF-8"?>
<svg width="100px" height="25px" viewBox="0 0 100 25" version="1.1" xmlns="http://www.w3.org/2000/svg" xmlns:xlink="http://www.w3.org/1999/xlink">
    <!-- Generator: Sketch 56.3 (81716) - https://sketch.com -->
    <title>Logo Grability-02</title>
    <desc>Created with Sketch.</desc>
    <g id="Page-1" stroke="none" stroke-width="1" fill="none" fill-rule="evenodd">
        <g id="Footer-Desktop" transform="translate(-670.000000, -288.000000)" fill-rule="nonzero">
            <g id="Logo-Grability-02" transform="translate(670.000000, 288.000000)">
                <circle id="Oval" fill="#131C4E" cx="72.1361579" cy="2.28910509" r="2.26562709"></circle>
                <circle id="Oval" fill="#131C4E" cx="59.5167324" cy="2.28910509" r="2.26562709"></circle>
                <path d="M25.051027,9.71989239 C25.156678,8.49903634 25.262329,7.27818029 25.379719,6.04558524 C25.379719,6.01036824 25.356241,5.97515124 25.321024,5.97515124 C25.039288,5.91645624 24.792769,5.88123924 24.464077,5.88123924 C22.4801859,5.88123924 21.1184619,6.86731528 20.2145588,8.28773434 C20.1793418,8.34642934 20.0854298,8.32295134 20.0854298,8.25251733 C20.0854298,7.71252331 20.0854298,6.45645026 20.0854298,6.13949725 C20.0854298,6.10428025 20.0502128,6.06906325 20.0149958,6.06906325 C19.6276088,6.06906325 17.7845857,6.06906325 16.7398147,6.06906325 C16.3406887,6.06906325 16.0237356,6.38601626 16.0237356,6.78514227 C16.0237356,9.33250538 16.0237356,17.8550197 16.0237356,18.7237058 C16.0237356,18.7589228 16.0589526,18.7941398 16.0941697,18.7941398 C16.4815567,18.7941398 18.3245797,18.7941398 19.3693508,18.7941398 C19.7684768,18.7941398 20.0854298,18.4771867 20.0854298,18.0780607 C20.0854298,16.9276387 20.0854298,14.8146186 20.0854298,14.8146186 C20.0854298,11.5159595 21.6349779,10.0485844 24.475816,10.0485844 C24.475816,10.0485844 24.581467,10.0485844 24.698857,10.0485844 C24.886681,10.0485844 25.039288,9.8959774 25.051027,9.71989239 Z" id="Path" fill="#131C4E"></path>
                <circle id="Oval" fill="#05CE7C" cx="3.48648314" cy="21.9401919" r="2.26562709"></circle>
                <path d="M67.8631617,0.598689024 C67.8631617,6.42123326 67.8631617,12.2437775 67.8631617,18.0663217 C67.8631617,18.4654477 67.5462087,18.7824008 67.1470827,18.7824008 C66.0553557,18.7824008 64.9636286,18.7824008 63.8719016,18.7824008 C63.8366846,18.7824008 63.8014676,18.7471838 63.8014676,18.7119668 C63.8014676,12.8894225 63.8014676,7.06687829 63.8014676,1.24433405 C63.8014676,0.845208034 64.1184206,0.528255021 64.5175466,0.528255021 C65.6092737,0.528255021 66.7010007,0.528255021 67.7927277,0.528255021 C67.8279447,0.528255021 67.8631617,0.563472023 67.8631617,0.598689024 Z" id="Path" fill="#131C4E"></path>
                <path d="M57.4858853,18.7119668 C57.4858853,14.7324456 57.4858853,10.7529244 57.4858853,6.77340327 C57.4858853,6.37427726 57.8028383,6.05732424 58.2019644,6.05732424 C59.2936914,6.05732424 60.3854184,6.05732424 61.4771455,6.05732424 C61.5123625,6.05732424 61.5475795,6.09254125 61.5475795,6.12775825 C61.5475795,10.1072794 61.5475795,14.0868006 61.5475795,18.0663217 C61.5475795,18.4654477 61.2306265,18.7824008 60.8315005,18.7824008 C59.7397734,18.7824008 58.6480464,18.7824008 57.5563193,18.7824008 C57.5093633,18.7824008 57.4858853,18.7589228 57.4858853,18.7119668 Z" id="Path" fill="#131C4E"></path>
                <path d="M39.7130386,6.06906325 C38.5039216,6.06906325 37.2948045,6.06906325 36.0856875,6.06906325 C35.8861245,6.06906325 35.7335174,6.23340925 35.7335174,6.42123326 C35.7335174,6.58557927 35.7335174,6.74992527 35.7335174,6.91427128 C35.7335174,6.97296628 35.6630834,7.00818328 35.6161274,6.97296628 C34.6417904,6.15123625 33.3622393,5.68167623 31.7774743,5.68167623 C28.4083811,5.68167623 25.567543,8.41686334 25.567543,12.4198625 C25.567543,16.4463397 28.3966421,19.1580488 31.7774743,19.1580488 C33.3622393,19.1580488 34.6417904,18.6884888 35.6161274,17.8667587 C35.6630834,17.8315417 35.7335174,17.8550197 35.7335174,17.9254537 C35.7335174,18.0897997 35.7335174,18.2541457 35.7335174,18.4184917 C35.7335174,18.6180548 35.8978635,18.7706618 36.0856875,18.7706618 C37.2948045,18.7706618 38.5039216,18.7706618 39.7130386,18.7706618 C39.7482556,18.7706618 39.7834726,18.7354448 39.7834726,18.7002278 C39.7834726,17.7258907 39.7834726,7.09035629 39.7834726,6.11601925 C39.7834726,6.09254125 39.7482556,6.06906325 39.7130386,6.06906325 Z M32.6109433,15.7185216 C30.8383542,15.7185216 29.5470642,14.4037536 29.5470642,12.4198625 C29.5470642,10.4711884 30.8383542,9.12120337 32.6109433,9.12120337 C34.2544034,9.12120337 35.7335174,10.4711884 35.7335174,12.4198625 C35.7335174,14.4037536 34.2544034,15.7185216 32.6109433,15.7185216 Z" id="Shape" fill="#131C4E"></path>
                <path d="M49.843796,5.68167623 C48.259031,5.68167623 46.9794799,6.15123625 46.0051429,6.97296628 C45.9581869,7.00818328 45.8877529,6.98470528 45.8877529,6.91427128 C45.8877529,5.98689024 45.8877529,1.24433405 45.8877529,0.598689024 C45.8877529,0.563472023 45.8525359,0.528255021 45.8173189,0.528255021 C45.4299318,0.528255021 43.5869088,0.528255021 42.5421377,0.528255021 C42.1430117,0.528255021 41.8260587,0.845208034 41.8260587,1.24433405 C41.8260587,4.47255918 41.8260587,17.6202397 41.8260587,18.7119668 C41.8260587,18.7471838 41.8612757,18.7824008 41.8964927,18.7824008 C42.3308357,18.7824008 44.6316798,18.7824008 45.5238438,18.7824008 C45.7234068,18.7824008 45.8760139,18.6180548 45.8760139,18.4302307 C45.8760139,18.2658847 45.8760139,18.0663217 45.8760139,17.9371927 C45.8760139,17.8784977 45.9464479,17.8432807 45.9934039,17.8784977 C46.9677409,18.7002278 48.247292,19.1697878 49.832057,19.1697878 C53.2011502,19.1697878 56.0419883,16.4580787 56.0419883,12.4316015 C56.0654663,8.41686334 53.2246282,5.68167623 49.843796,5.68167623 Z M49.010327,15.7185216 C47.3668669,15.7185216 45.8877529,14.4037536 45.8877529,12.4198625 C45.8877529,10.4711884 47.3551279,9.12120337 49.010327,9.12120337 C50.7829161,9.12120337 52.0742061,10.4711884 52.0742061,12.4198625 C52.0859451,14.4037536 50.7946551,15.7185216 49.010327,15.7185216 Z" id="Shape" fill="#131C4E"></path>
                <path d="M13.8754986,6.06906325 C13.4411555,6.06906325 11.2107455,6.06906325 10.3303204,6.06906325 C10.1307574,6.06906325 9.9781504,6.23340925 9.9781504,6.42123326 C9.9781504,6.53862326 9.9781504,6.65601327 9.9781504,6.73818627 C9.9781504,6.79688127 9.9077164,6.83209828 9.8607604,6.79688127 C8.95685736,6.06906325 7.72426231,5.68167623 6.15123625,5.68167623 C2.81736011,5.68167623 0,8.28773434 0,11.8094345 C0,15.4133076 2.81736011,18.0428437 6.13949725,18.0428437 C7.71252331,18.0428437 8.94511836,17.6437177 9.8490214,16.9158997 C9.8959774,16.8806827 9.9664114,16.9158997 9.9664114,16.9745947 C9.9664114,17.0685067 9.9664114,17.1741577 9.9664114,17.1741577 C9.9664114,19.0758758 8.76903335,20.1558638 7.06687829,20.2615148 C7.03166128,20.2615148 6.99644428,20.2967318 6.99644428,20.3319488 C6.99644428,21.3884589 6.99644428,22.4567079 6.99644428,23.513218 C6.99644428,23.548435 7.03166128,23.583652 7.06687829,23.583652 C11.0698774,23.501479 13.9341936,21.3532419 13.9341936,17.5028497 C13.9341936,17.5028497 13.9341936,7.07861729 13.9341936,6.11601925 C13.9459326,6.09254125 13.9107156,6.06906325 13.8754986,6.06906325 Z M6.99644428,14.7324456 C5.22385521,14.7324456 3.94430416,13.5233285 3.94430416,11.8094345 C3.94430416,10.1072794 5.21211621,8.92164036 6.99644428,8.92164036 C8.61642635,8.92164036 9.9664114,10.1190184 9.9664114,11.8094345 C9.9664114,13.5233285 8.61642635,14.7324456 6.99644428,14.7324456 Z" id="Shape" fill="#131C4E"></path>
                <path d="M70.1053108,18.7119668 C70.1053108,14.7324456 70.1053108,10.7529244 70.1053108,6.77340327 C70.1053108,6.37427726 70.4222638,6.05732424 70.8213899,6.05732424 C71.9131169,6.05732424 73.004844,6.05732424 74.096571,6.05732424 C74.131788,6.05732424 74.167005,6.09254125 74.167005,6.12775825 C74.167005,10.1072794 74.167005,14.0868006 74.167005,18.0663217 C74.167005,18.4654477 73.850052,18.7824008 73.450926,18.7824008 C72.3591989,18.7824008 71.2674719,18.7824008 70.1757448,18.7824008 C70.1405278,18.7824008 70.1053108,18.7589228 70.1053108,18.7119668 Z" id="Path" fill="#131C4E"></path>
                <path d="M88.3125006,6.06906325 C87.2442515,6.06906325 86.1877415,6.06906325 85.1194924,6.06906325 C83.8986364,6.06906325 82.6660413,6.06906325 81.4451853,6.06906325 C81.4099683,6.06906325 81.3747513,6.03384624 81.3747513,5.99862924 C81.3747513,4.78951219 81.3747513,3.59213415 81.3747513,2.3830171 C81.3747513,2.34780009 81.3395343,2.31258309 81.3043173,2.31258309 C80.2125902,2.31258309 79.1208632,2.31258309 78.0291362,2.31258309 C77.6300101,2.31258309 77.3130571,2.62953611 77.3130571,3.02866212 C77.3130571,4.01473816 77.3130571,5.0125532 77.3130571,5.99862924 C77.3130571,6.03384624 77.2778401,6.06906325 77.2426231,6.06906325 C76.5265441,6.06906325 75.7987261,6.06906325 75.082647,6.06906325 C75.04743,6.06906325 75.012213,6.10428025 75.012213,6.13949725 C75.012213,7.16079029 75.012213,8.19382233 75.012213,9.21511537 C75.012213,9.25033237 75.04743,9.28554938 75.082647,9.28554938 C75.7987261,9.28554938 76.5265441,9.28554938 77.2426231,9.28554938 C77.2778401,9.28554938 77.3130571,9.32076638 77.3130571,9.35598338 C77.3130571,10.9407484 77.3130571,12.5137745 77.3130571,14.0985396 C77.3130571,17.4441547 79.2147752,19.1697878 82.3843053,19.1697878 C83.8047244,19.1697878 84.8377564,18.7824008 85.8003545,18.2541457 C85.8355715,18.2424067 85.8473105,18.2071897 85.8355715,18.1719727 C85.5420965,17.1506797 85.2368824,16.1411257 84.9434074,15.1198326 C84.9316684,15.0728766 84.8847124,15.0611376 84.8377564,15.0728766 C84.3095014,15.3546126 83.5934224,15.5306976 83.0651674,15.5306976 C82.0086573,15.5306976 81.3630123,15.0024426 81.3630123,13.6876746 C81.3630123,12.2437775 81.3630123,10.7998804 81.3630123,9.35598338 C81.3630123,9.32076638 81.3982293,9.28554938 81.4334463,9.28554938 C82.6308243,9.28554938 83.8399414,9.28554938 85.0373194,9.28554938 C85.0725364,9.28554938 85.1077534,9.25033237 85.1077534,9.21511537 C85.1077534,9.00381336 85.1077534,8.35816834 85.1077534,7.70078431 C85.1077534,7.58339431 85.1899264,7.4894823 85.2955774,7.4660043 C85.4012285,7.4425263 85.5186185,7.5012213 85.5655745,7.60687231 C87.0799055,11.1403115 88.5942366,14.6854896 90.1085676,18.2189287 C90.1437846,18.3128407 90.1437846,18.4067527 90.1085676,18.5006647 C89.4629226,20.0032568 88.8055386,21.4941099 88.1598936,22.9967019 C88.1364156,23.0436579 88.1716326,23.1023529 88.2303276,23.1023529 C89.4981396,23.1023529 90.7659517,23.1023529 92.0337637,23.1023529 C92.3154997,23.1023529 92.5737577,22.9380069 92.6911477,22.6680099 C95.0624258,17.1624187 97.4454429,11.6450885 99.816721,6.13949725 C99.840199,6.09254125 99.804982,6.03384624 99.746287,6.03384624 C98.490214,6.03384624 97.2224019,6.03384624 95.9663289,6.03384624 C95.6845929,6.03384624 95.4263349,6.19819225 95.3089449,6.46818926 C94.3228688,8.74555535 93.3250538,11.0346604 92.3389777,13.3120265 C92.3154997,13.3707215 92.2333267,13.3707215 92.2098487,13.3120265 C91.3529017,11.1990065 90.4959547,9.07424737 89.6272686,6.96122728 C89.4277056,6.42123326 88.8994506,6.06906325 88.3125006,6.06906325 Z" id="Path" fill="#131C4E"></path>
            </g>
        </g>
    </g>
</svg>