<?xml version="1.0" encoding="UTF-8"?>
<svg width="20px" height="18px" viewBox="0 0 20 18" version="1.1" xmlns="http://www.w3.org/2000/svg" xmlns:xlink="http://www.w3.org/1999/xlink">
    <!-- Generator: Sketch 56.2 (81672) - https://sketch.com -->
    <title>Shape</title>
    <desc>Created with Sketch.</desc>
    <g id="Desktop" stroke="none" stroke-width="1" fill="none" fill-rule="evenodd">
        <g id="Vitrina-Desktop" transform="translate(-1226.000000, -2325.000000)" fill="#31302F">
            <g id="Footer" transform="translate(-1.000000, 2162.000000)">
                <g id="Info-de-contacto" transform="translate(1115.000000, 52.000000)">
                    <path d="M130.522301,129 L113.478701,129 C112.661761,129 112,128.421739 112,127.70865 L112,112.290351 C112,111.578261 112.661761,111 113.478701,111 L130.522301,111 C131.338239,111 132,111.578261 132,112.290351 L132,127.70865 C132,128.421739 131.338239,129 130.522301,129 L130.522301,129 Z M115.465986,126.034789 L118.411373,126.034789 L118.411373,117.908173 L115.465986,117.908173 L115.465986,126.034789 L115.465986,126.034789 Z M116.958703,113.991178 C115.950543,113.991178 115.292787,114.597403 115.292787,115.395384 C115.292787,116.174388 115.931521,116.799589 116.919658,116.799589 L116.938679,116.799589 C117.965861,116.799589 118.604595,116.174388 118.604595,115.395384 C118.586575,114.597403 117.965861,113.991178 116.958703,113.991178 L116.958703,113.991178 Z M129.031586,121.375742 C129.031586,118.878932 127.577915,117.717417 125.640687,117.717417 C124.076888,117.717417 123.378085,118.50541 122.986635,119.059701 L122.986635,117.908173 L120.041247,117.908173 C120.080292,118.671198 120.041247,126.034789 120.041247,126.034789 L122.986635,126.034789 L122.986635,121.496588 C122.986635,121.254897 123.005657,121.011208 123.083746,120.838429 C123.29599,120.353049 123.781549,119.850691 124.594484,119.850691 C125.66071,119.850691 126.086199,120.595739 126.086199,121.688343 L126.086199,126.034789 L129.031586,126.034789 L129.031586,121.375742 L129.031586,121.375742 Z M122.966612,119.086667 C122.972619,119.077679 122.980628,119.06869 122.986635,119.059701 L122.986635,119.086667 L122.966612,119.086667 L122.966612,119.086667 Z" id="Shape"></path>
                </g>
            </g>
        </g>
    </g>
</svg>