<?xml version="1.0" encoding="UTF-8"?>
<svg width="21px" height="16px" viewBox="0 0 21 16" version="1.1" xmlns="http://www.w3.org/2000/svg" xmlns:xlink="http://www.w3.org/1999/xlink">
    <!-- Generator: Sketch 56.2 (81672) - https://sketch.com -->
    <title>Shape</title>
    <desc>Created with Sketch.</desc>
    <g id="Desktop" stroke="none" stroke-width="1" fill="none" fill-rule="evenodd">
        <g id="Vitrina-Desktop" transform="translate(-1165.000000, -2326.000000)" fill="#31302F">
            <g id="Footer" transform="translate(-1.000000, 2162.000000)">
                <g id="Info-de-contacto" transform="translate(1115.000000, 52.000000)">
                    <path d="M72,113.894882 C71.2272944,114.216861 70.3966108,114.431848 69.5259425,114.529842 C70.4156036,114.029873 71.0983435,113.237923 71.4202209,112.295982 C70.5865385,112.757953 69.6648896,113.093932 68.6832635,113.27592 C67.8985625,112.489969 66.7779893,112 65.5394612,112 C63.1603675,112 61.2301028,113.808887 61.2301028,116.038748 C61.2301028,116.355728 61.2680883,116.664708 61.3420602,116.95969 C57.7614242,116.790701 54.5866337,115.182801 52.4614433,112.739954 C52.0905845,113.336916 51.8786653,114.029873 51.8786653,114.770827 C51.8786653,116.170739 52.6393755,117.408662 53.7949353,118.132617 C53.0892041,118.110618 52.425457,117.929629 51.8436786,117.626648 L51.8436786,117.678645 C51.8436786,119.635523 53.3281131,121.267421 55.2993621,121.638398 C54.9384996,121.730392 54.5566451,121.778389 54.1647944,121.778389 C53.8869002,121.778389 53.617003,121.75439 53.3541032,121.708393 C53.9018945,123.311293 55.4932883,124.48022 57.3785701,124.513218 C55.9041318,125.59615 54.0468393,126.24111 52.0276085,126.24111 C51.6797411,126.24111 51.3368717,126.222111 51,126.185113 C52.9062738,127.330042 55.1714109,128 57.604484,128 C65.529465,128 69.8628142,121.844385 69.8628142,116.507718 C69.8628142,116.331729 69.8578161,116.15874 69.8498191,115.984751 C70.6914985,115.414787 71.4222201,114.703831 72,113.894882 L72,113.894882 Z" id="Shape"></path>
                </g>
            </g>
        </g>
    </g>
</svg>